<?xml version="1.0" encoding="utf-8"?>
<svg id="master-artboard" viewBox="0 0 600 900" version="1.1" xmlns="http://www.w3.org/2000/svg" x="0px" y="0px" style="enable-background:new 0 0 1400 980;" width="600px" height="900px"><defs><style id="ee-google-fonts">@import url(https://fonts.googleapis.com/css?family=Adamina:400);</style></defs><rect id="ee-background" x="0" y="0" width="600" height="900" style="fill: rgb(5, 5, 5); fill-opacity: 1; pointer-events: none;"/><path d="M 236.9576416015625 277.04998779296875 C 236.8643035888672 276.7633361816406 236.8643035888672 276.47332763671875 236.9576416015625 276.17999267578125 L 238.9576416015625 275.8999938964844 C 239.01763916015625 275.2866516113281 239.04763793945312 274.3500061035156 239.04763793945312 273.0899963378906 L 239.04763793945312 258.95001220703125 L 237.10763549804688 258.7099914550781 C 237.0409698486328 258.4700012207031 237.0409698486328 258.17333984375 237.10763549804688 257.82000732421875 C 237.34764099121094 257.8399963378906 237.72430419921875 257.8500061035156 238.23764038085938 257.8500061035156 C 239.25762939453125 257.8500061035156 240.58096313476562 257.8066711425781 242.2076416015625 257.7200012207031 C 243.82763671875 257.6266784667969 244.75762939453125 257.5799865722656 244.9976348876953 257.5799865722656 C 248.13763427734375 257.5799865722656 250.51429748535156 258.42999267578125 252.1276397705078 260.1300048828125 C 253.7476348876953 261.8233337402344 254.55763244628906 264.10333251953125 254.55763244628906 266.9700012207031 C 254.55763244628906 269.8833312988281 253.79763793945312 272.29998779296875 252.2776336669922 274.2200012207031 C 250.75762939453125 276.1400146484375 248.6276397705078 277.1000061035156 245.88763427734375 277.1000061035156 C 244.97430419921875 277.1000061035156 243.76763916015625 277.086669921875 242.26763916015625 277.05999755859375 C 240.76097106933594 277.0333251953125 239.68096923828125 277.0199890136719 239.0276336669922 277.0199890136719 C 238.10096740722656 277.0199890136719 237.4109649658203 277.0299987792969 236.9576416015625 277.04998779296875 M 244.97763061523438 275.94000244140625 C 249.490966796875 275.94000244140625 251.7476348876953 272.9966735839844 251.7476348876953 267.1099853515625 C 251.7476348876953 264.57000732421875 251.1576385498047 262.5633239746094 249.97763061523438 261.0899963378906 C 248.80430603027344 259.6166687011719 247.1143035888672 258.8333435058594 244.9076385498047 258.739990234375 C 244.71429443359375 258.7200012207031 244.41763305664062 258.7099914550781 244.01763916015625 258.7099914550781 C 243.1709747314453 258.7099914550781 242.404296875 258.7733459472656 241.71763610839844 258.8999938964844 C 241.65097045898438 259.5133361816406 241.6176300048828 260.48333740234375 241.6176300048828 261.80999755859375 L 241.6176300048828 275.8699951171875 C 241.81097412109375 275.8699951171875 242.27096557617188 275.8833312988281 242.9976348876953 275.9100036621094 C 243.72430419921875 275.92999267578125 244.38430786132812 275.94000244140625 244.97763061523438 275.94000244140625 Z" transform="matrix(24.103958129882812, 0, 0, 24.103958129882812, -5682.03857421875, -6624.20703125)" style="fill: rgb(199, 199, 199); white-space: pre; color: rgb(51, 51, 51);"/><path d="M 236.9576416015625 277.04998779296875 C 236.8643035888672 276.7633361816406 236.8643035888672 276.47332763671875 236.9576416015625 276.17999267578125 L 238.9576416015625 275.8999938964844 C 239.01763916015625 275.2866516113281 239.04763793945312 274.3500061035156 239.04763793945312 273.0899963378906 L 239.04763793945312 258.95001220703125 L 237.10763549804688 258.7099914550781 C 237.0409698486328 258.4700012207031 237.0409698486328 258.17333984375 237.10763549804688 257.82000732421875 C 237.34764099121094 257.8399963378906 237.72430419921875 257.8500061035156 238.23764038085938 257.8500061035156 C 239.25762939453125 257.8500061035156 240.58096313476562 257.8066711425781 242.2076416015625 257.7200012207031 C 243.82763671875 257.6266784667969 244.75762939453125 257.5799865722656 244.9976348876953 257.5799865722656 C 248.13763427734375 257.5799865722656 250.51429748535156 258.42999267578125 252.1276397705078 260.1300048828125 C 253.7476348876953 261.8233337402344 254.55763244628906 264.10333251953125 254.55763244628906 266.9700012207031 C 254.55763244628906 269.8833312988281 253.79763793945312 272.29998779296875 252.2776336669922 274.2200012207031 C 250.75762939453125 276.1400146484375 248.6276397705078 277.1000061035156 245.88763427734375 277.1000061035156 C 244.97430419921875 277.1000061035156 243.76763916015625 277.086669921875 242.26763916015625 277.05999755859375 C 240.76097106933594 277.0333251953125 239.68096923828125 277.0199890136719 239.0276336669922 277.0199890136719 C 238.10096740722656 277.0199890136719 237.4109649658203 277.0299987792969 236.9576416015625 277.04998779296875 M 244.97763061523438 275.94000244140625 C 249.490966796875 275.94000244140625 251.7476348876953 272.9966735839844 251.7476348876953 267.1099853515625 C 251.7476348876953 264.57000732421875 251.1576385498047 262.5633239746094 249.97763061523438 261.0899963378906 C 248.80430603027344 259.6166687011719 247.1143035888672 258.8333435058594 244.9076385498047 258.739990234375 C 244.71429443359375 258.7200012207031 244.41763305664062 258.7099914550781 244.01763916015625 258.7099914550781 C 243.1709747314453 258.7099914550781 242.404296875 258.7733459472656 241.71763610839844 258.8999938964844 C 241.65097045898438 259.5133361816406 241.6176300048828 260.48333740234375 241.6176300048828 261.80999755859375 L 241.6176300048828 275.8699951171875 C 241.81097412109375 275.8699951171875 242.27096557617188 275.8833312988281 242.9976348876953 275.9100036621094 C 243.72430419921875 275.92999267578125 244.38430786132812 275.94000244140625 244.97763061523438 275.94000244140625 Z" transform="matrix(24.103958129882812, 0, 0, 24.103958129882812, -5573.55615234375, -6488.96533203125)" style="fill: rgb(188, 188, 188); white-space: pre; color: rgb(51, 51, 51);"/></svg>